<svg aria-hidden="true" style="width:0;height:0;position:absolute;overflow:hidden" xmlns="http://www.w3.org/2000/svg"><defs><symbol id="menu" viewBox="0 0 32 16" fill="#000"><rect width="30" height="2" rx="1"/><rect y="7" width="30" height="2" rx="1"/><rect y="14" width="30" height="2" rx="1"/></symbol><symbol id="close" viewBox="0 0 32 32" fill="#000"><path d="m17.253 16 7.37-7.369a.889.889 0 0 0-1.254-1.253L16 14.747 8.631 7.369A.893.893 0 0 0 7.37 8.63L14.747 16l-7.378 7.369a.89.89 0 1 0 1.253 1.253L16 17.253l7.369 7.37a.889.889 0 0 0 1.253-1.254l-7.369-7.37Z"/></symbol><symbol id="search" viewBox="0 0 24 24" fill="#FD5103"><path d="m14.938 15.646.313.312 4.042 4.043.707-.707-4.043-4.042-.313-.314.273-.348A7.452 7.452 0 0 0 17.5 10l-2.562 5.646Zm0 0-.349.272m.349-.272-.349.272m0 0A7.452 7.452 0 0 1 10 17.5l4.589-1.582ZM9.999 17.5C5.866 17.5 2.5 14.135 2.5 10S5.865 2.5 10 2.5s7.5 3.365 7.5 7.5L10 17.5ZM16.5 10c0-3.585-2.915-6.5-6.5-6.5A6.506 6.506 0 0 0 3.5 10c0 3.585 2.915 6.5 6.5 6.5s6.5-2.915 6.5-6.5Z" stroke="#FD5103"/></symbol><symbol id="arrow" viewBox="0 0 24 20" fill="#000"><path d="m12.543 15.93 7.965-8.36a.75.75 0 0 0 0-1.035l-.01-.009a.69.69 0 0 0-1 0l-7.5 7.872-7.497-7.872a.69.69 0 0 0-1 0l-.009.01a.75.75 0 0 0 0 1.034l7.965 8.36a.75.75 0 0 0 1.086 0Z"/></symbol></defs></svg>