<svg aria-hidden="true" style="width:0;height:0;position:absolute;overflow:hidden" xmlns="http://www.w3.org/2000/svg"><defs><symbol id="menu" viewBox="0 0 32 16" fill="#000"><rect width="30" height="2" rx="1"/><rect y="7" width="30" height="2" rx="1"/><rect y="14" width="30" height="2" rx="1"/></symbol><symbol id="close" viewBox="0 0 32 32" fill="#000"><path d="m17.253 16 7.37-7.369a.889.889 0 0 0-1.254-1.253L16 14.747 8.631 7.369A.893.893 0 0 0 7.37 8.63L14.747 16l-7.378 7.369a.89.89 0 1 0 1.253 1.253L16 17.253l7.369 7.37a.889.889 0 0 0 1.253-1.254l-7.369-7.37Z"/></symbol><symbol id="search" viewBox="0 0 24 24" fill="#FD5103"><path d="m14.938 15.646.313.312 4.042 4.043.707-.707-4.043-4.042-.313-.314.273-.348A7.452 7.452 0 0 0 17.5 10l-2.562 5.646Zm0 0-.349.272m.349-.272-.349.272m0 0A7.452 7.452 0 0 1 10 17.5l4.589-1.582ZM9.999 17.5C5.866 17.5 2.5 14.135 2.5 10S5.865 2.5 10 2.5s7.5 3.365 7.5 7.5L10 17.5ZM16.5 10c0-3.585-2.915-6.5-6.5-6.5A6.506 6.506 0 0 0 3.5 10c0 3.585 2.915 6.5 6.5 6.5s6.5-2.915 6.5-6.5Z" stroke="#FD5103"/></symbol><symbol id="arrow" viewBox="0 0 24 20"><path d="m12.543 15.93 7.965-8.36a.75.75 0 0 0 0-1.035l-.01-.009a.69.69 0 0 0-1 0l-7.5 7.872-7.497-7.872a.69.69 0 0 0-1 0l-.009.01a.75.75 0 0 0 0 1.034l7.965 8.36a.75.75 0 0 0 1.086 0Z"/></symbol><symbol id="select-arrow" viewBox="0 0 24 24"><path d="M5.843 9.593 11.5 15.25l5.657-5.657-.707-.707-4.95 4.95-4.95-4.95-.707.707Z"/><path d="M5.843 9.593 11.5 15.25l5.657-5.657-.707-.707-4.95 4.95-4.95-4.95-.707.707Z"/></symbol><symbol id="icon-nav-next" viewBox="0 0 21 32"><path d="m5.387 32 16-16-16-16-3.76 3.76L13.84 16 1.627 28.24z"/></symbol><symbol id="icon-nav-prev" viewBox="0 0 21 32"><path d="m16.533 0-16 16 16 16 3.76-3.76L8.08 16 20.293 3.76z"/></symbol><symbol id="icon-heart" viewBox="0 0 35 32"><path fill="#fd5103" style="fill:var(--color1,#fd5103)" d="m17.684 32-2.564-2.302C6.013 21.554 0 16.183 0 9.591 0 4.22 4.28 0 9.726 0c3.077 0 6.03 1.413 7.958 3.645C19.612 1.413 22.565 0 25.642 0c5.447 0 9.726 4.22 9.726 9.591 0 6.592-6.013 11.963-15.12 20.124l-2.564 2.284z"/><path style="fill:var(--color2,#fcfcfc)" d="m17.684 28.632-2.076-1.817c-7.373-6.429-12.24-10.67-12.24-15.874 0-4.24 3.464-7.572 7.874-7.572 2.491 0 4.882 1.115 6.442 2.877 1.56-1.762 3.951-2.877 6.442-2.877 4.409 0 7.874 3.332 7.874 7.572 0 5.204-4.867 9.444-12.24 15.888l-2.076 1.803z"/></symbol></defs></svg>