<svg aria-hidden="true" style="position:absolute;width:0;height:0;overflow:hidden" xmlns="http://www.w3.org/2000/svg">
  <defs>
    <symbol id="menu" viewBox="0 0 32 16" fill="#000000">
    <rect width="30" height="2" rx="1" fill="black"/>
<rect y="7" width="30" height="2" rx="1" fill="black"/>
<rect y="14" width="30" height="2" rx="1" fill="black"/>
    </symbol>
    <symbol id="close" viewBox="0 0 32 32" fill="#000000">
      <path d="M17.2534 15.9999L24.6223 8.63106C24.7679 8.46101 24.844 8.24228 24.8353 8.01857C24.8267 7.79485 24.734 7.58264 24.5757 7.42434C24.4174 7.26603 24.2051 7.17329 23.9814 7.16465C23.7577 7.15601 23.539 7.2321 23.3689 7.37773L16 14.7466L8.63116 7.36884C8.46377 7.20146 8.23676 7.10742 8.00004 7.10742C7.76333 7.10742 7.53631 7.20146 7.36893 7.36884C7.20155 7.53622 7.10752 7.76324 7.10752 7.99995C7.10752 8.23666 7.20155 8.46368 7.36893 8.63106L14.7467 15.9999L7.36893 23.3688C7.27588 23.4485 7.20031 23.5466 7.14695 23.6569C7.0936 23.7671 7.06362 23.8873 7.05889 24.0097C7.05416 24.1321 7.07479 24.2542 7.11948 24.3682C7.16417 24.4823 7.23195 24.5859 7.31858 24.6725C7.4052 24.7592 7.5088 24.8269 7.62287 24.8716C7.73693 24.9163 7.85901 24.9369 7.98142 24.9322C8.10384 24.9275 8.22396 24.8975 8.33424 24.8441C8.44452 24.7908 8.54258 24.7152 8.62227 24.6222L16 17.2533L23.3689 24.6222C23.539 24.7678 23.7577 24.8439 23.9814 24.8352C24.2051 24.8266 24.4174 24.7339 24.5757 24.5756C24.734 24.4173 24.8267 24.205 24.8353 23.9813C24.844 23.7576 24.7679 23.5389 24.6223 23.3688L17.2534 15.9999Z"/>
    </symbol>
    <symbol id="search" viewBox="0 0 24 24" fill="#FD5103">
      <path d="M14.9376 15.6455L15.2506 15.9584L19.293 20.0009L19.9999 19.294L15.9574 15.2516L15.6444 14.9385L15.9172 14.5899C16.9424 13.2795 17.4996 11.6638 17.5 10L14.9376 15.6455ZM14.9376 15.6455L14.589 15.9181M14.9376 15.6455L14.589 15.9181M14.589 15.9181C13.2787 16.9428 11.6633 17.4996 10 17.5L14.589 15.9181ZM9.9999 17.5C5.86509 17.4999 2.5 14.1348 2.5 10C2.5 5.86514 5.86514 2.5 10 2.5C14.1348 2.5 17.4999 5.86508 17.5 9.99988L9.9999 17.5ZM16.5 10C16.5 6.41486 13.5851 3.5 10 3.5C6.41486 3.5 3.5 6.41486 3.5 10C3.5 13.5851 6.41486 16.5 10 16.5C13.5851 16.5 16.5 13.5851 16.5 10Z" fill="#FD5103" stroke="#FD5103"/>
    </symbol>
    <symbol id="arrow" viewBox="0 0 24 20" fill="#000000">
      <path d="M12.5429 15.9299L20.5079 7.57045C20.6409 7.43096 20.7151 7.24565 20.7151 7.05295C20.7151 6.86024 20.6409 6.67493 20.5079 6.53545L20.4989 6.52645C20.4345 6.45859 20.3569 6.40456 20.2709 6.36764C20.1849 6.33072 20.0923 6.31168 19.9987 6.31168C19.9051 6.31168 19.8125 6.33072 19.7265 6.36764C19.6405 6.40456 19.5629 6.45859 19.4984 6.52645L11.9984 14.3984L4.50145 6.52645C4.43699 6.45859 4.3594 6.40456 4.2734 6.36764C4.1874 6.33072 4.09479 6.31168 4.0012 6.31168C3.90761 6.31168 3.815 6.33072 3.729 6.36764C3.643 6.40456 3.56541 6.45859 3.50095 6.52645L3.49195 6.53545C3.35898 6.67493 3.2848 6.86024 3.2848 7.05295C3.2848 7.24565 3.35898 7.43096 3.49195 7.57045L11.4569 15.9299C11.527 16.0035 11.6112 16.062 11.7046 16.102C11.7979 16.142 11.8984 16.1626 11.9999 16.1626C12.1015 16.1626 12.202 16.142 12.2953 16.102C12.3887 16.062 12.4729 16.0035 12.5429 15.9299Z" fill="black"/>
    </symbol>
  </defs>
</svg>
